<svg id="icons" xmlns="http://www.w3.org/2000/svg" viewBox="0 0 97.12 101"><defs><style>.cls-1,.cls-2,.cls-3{fill:none;stroke:#fff;stroke-miterlimit:10;}.cls-1,.cls-2{stroke-width:2px;}.cls-2,.cls-3{stroke-linecap:round;}.cls-3{stroke-width:1.4px;}</style></defs><title>girl</title><path class="cls-1" d="M41.27,20.86a9.88,9.88,0,0,1-1.52,4C38.65,26.08,36,27,33.83,29.08c-2.54,2.37-4.09,5.71-4.21,7.4-.08,1.18-5.87-1.18-5.87,3.69,0,4.56,4,3,4.52,4.83a18.89,18.89,0,0,0,4.26,7.84c2.28,2.33,5.62,3.94,10.64,3.94,6.12,0,9-1.37,10.93-2.83,2.28-1.77,5.48-5.15,5.57-13.51.08-7.9-3.14-10.7-5.76-12.22-2.79-1.62-6.65-2.46-9.18-4.15A18.75,18.75,0,0,1,41.27,20.86Z" transform="translate(-6.24 -4.4)"/><path class="cls-2" d="M41.37,21.38S41,13.74,39.72,11c-1.38-2.9-4.63-3.27-7.63-2.94-3.17.35-5.52,2.47-5.88,5.05-.32,2.36-.23,4.94-.58,5.41s-5.41.35-7.29,4.34.61,8.47.47,9.4-3.49,2.36-3.17,7.52c.35,5.64,4.7,7.17,4.7,8.46s-2.45,2.36-2,5.87,3.17,4.23,3.17,5.41c0,.82-2.46,3.64-1.76,7.87.41,2.44,3.37,4.23,3.37,4.23" transform="translate(-6.24 -4.4)"/><path class="cls-2" d="M39.37,9.86S41.68,5.25,46,5.4s4.78,2.58,5.6,3,6.54-1,9.12,1.49c3.37,3.21,2,7.56,2.67,8.62s5.3.58,6.89,4.7S68.66,30.89,69,32.19s3.61,2.28,3.61,6.73-4.39,6.42-4.54,7.83c-.13,1.14,2.12,2.55,1.56,5.8-.51,3-3.76,3.91-4.19,5.13-.26.74,1.22,3-.51,5.36s-5.33,3.21-8.18,6.27c-6.58,7-6.83,14.84-7.52,14.92-1.06.12-4.24-6.13-4.94-10.81-.82-5.52.83-9.51,3.41-12.33S55.23,53,55.23,53" transform="translate(-6.24 -4.4)"/><path class="cls-2" d="M35.81,55.37s.3,5.51-.63,8.3-5.79,5.64-9.08,7.21c-1.93.91-8.61,3.85-12.36,6.8C10.63,80.13,7.93,87.32,7.61,92c-.21,3.13-.62,7.83-.15,8.62s20.36,3.76,35.4,3.76,38.84-2.2,39-3,0-7-.16-10.65c-.19-4.39-1.69-9.85-3.59-12.22-1.73-2.16-8.11-4.81-11.24-5.84S59.93,69,59.77,67" transform="translate(-6.24 -4.4)"/><path class="cls-2" d="M26.92,70.48A17.26,17.26,0,0,0,33.38,75c4.58,1.64,11.39,1.53,11.39,1.53" transform="translate(-6.24 -4.4)"/><path class="cls-2" d="M52.57,76.2a32.34,32.34,0,0,0,6.58-.78,9.09,9.09,0,0,0,5.36-3.53" transform="translate(-6.24 -4.4)"/><path class="cls-3" d="M23.75,77.3a26,26,0,0,0,0,3.76" transform="translate(-6.24 -4.4)"/><path class="cls-3" d="M29.39,81.06a26,26,0,0,0,0,3.76" transform="translate(-6.24 -4.4)"/><path class="cls-3" d="M19.05,95.15a26,26,0,0,0,0,3.76" transform="translate(-6.24 -4.4)"/><path class="cls-3" d="M55.7,82a26,26,0,0,0,0,3.76" transform="translate(-6.24 -4.4)"/><path class="cls-3" d="M31.26,92.34a27.59,27.59,0,0,0,0,3.75" transform="translate(-6.24 -4.4)"/><path class="cls-3" d="M40.66,80.12a15.39,15.39,0,0,1,0,3.76" transform="translate(-6.24 -4.4)"/><path class="cls-3" d="M63.22,78.24a16.05,16.05,0,0,1,0,3.76" transform="translate(-6.24 -4.4)"/><path class="cls-3" d="M14.35,90.46a16,16,0,0,1,0,3.75" transform="translate(-6.24 -4.4)"/><path class="cls-3" d="M36,85.76a15.39,15.39,0,0,1,0,3.76" transform="translate(-6.24 -4.4)"/><path class="cls-3" d="M53.82,93.28a15.32,15.32,0,0,1,0,3.75" transform="translate(-6.24 -4.4)"/><path class="cls-3" d="M60.4,87.64a26,26,0,0,0,0,3.76" transform="translate(-6.24 -4.4)"/><path class="cls-3" d="M77.32,82.94a26,26,0,0,0,0,3.76" transform="translate(-6.24 -4.4)"/><path class="cls-3" d="M24.69,87.64a26,26,0,0,0,0,3.76" transform="translate(-6.24 -4.4)"/><path class="cls-3" d="M74.5,94.21a26,26,0,0,0,0,3.76" transform="translate(-6.24 -4.4)"/><path class="cls-3" d="M41.6,94.21c0,1.57-.15,3.76-.15,3.76" transform="translate(-6.24 -4.4)"/><path class="cls-3" d="M18.11,81.06c0,1.56-.16,3.76-.16,3.76" transform="translate(-6.24 -4.4)"/><path class="cls-3" d="M64.16,94.21C64.16,95.78,64,98,64,98" transform="translate(-6.24 -4.4)"/><path class="cls-3" d="M69.8,77.3c0,1.56-.16,3.76-.16,3.76" transform="translate(-6.24 -4.4)"/><path class="cls-3" d="M67.92,87.64c0,1.56-.16,3.76-.16,3.76" transform="translate(-6.24 -4.4)"/><path class="cls-3" d="M46.3,88.58c0,1.56-.15,3.76-.15,3.76" transform="translate(-6.24 -4.4)"/><path class="cls-2" d="M65.84,7.07a26.26,26.26,0,0,1,10.69,1,17,17,0,0,1,5.64,2.82,13.33,13.33,0,0,1,3.76,5.95A30.38,30.38,0,0,1,87,25.45c.13,4.69,0,8.93,0,8.93" transform="translate(-6.24 -4.4)"/><path class="cls-2" d="M74.86,20.12A5.88,5.88,0,0,1,79.61,23a15.55,15.55,0,0,1,2.25,6.71,43.42,43.42,0,0,0,.31,4.7c.08.49,6.44-1.1,6.58,4.07.16,5.8-6.73,3.76-6.73,4.7s-.16,3.6-.32,4.86a11.26,11.26,0,0,1-3.29,6.11,7.57,7.57,0,0,1-4.5,2.09" transform="translate(-6.24 -4.4)"/><path class="cls-2" d="M76.28,56a31.51,31.51,0,0,0,.25,3.46c.17,1.4.37,2.62,1.1,3.29,1.83,1.7,4.68,3.18,7.85,4.85s8.66,4.21,11.34,6a12,12,0,0,1,4.33,6.29,36.86,36.86,0,0,1,1.18,9.69c0,2.6.21,7.32-.42,7.94-.87.87-10.76,1.37-12.33,1.21" transform="translate(-6.24 -4.4)"/><path class="cls-2" d="M77.63,62.73s-2.06,2.27-7.28,3" transform="translate(-6.24 -4.4)"/><path class="cls-3" d="M82.49,33.13C83.9,32.19,87,29.68,87,29.68" transform="translate(-6.24 -4.4)"/><path class="cls-3" d="M82,29.13c1.64-1.17,4.46-3.52,4.46-3.52" transform="translate(-6.24 -4.4)"/><path class="cls-3" d="M80.84,25.14c1.65-1.41,4.94-4.23,5.88-5.17" transform="translate(-6.24 -4.4)"/><path class="cls-3" d="M78.49,21.85c1.65-1.18,4.94-4.7,6.82-5.88" transform="translate(-6.24 -4.4)"/><path class="cls-3" d="M83,12.21c-.71.71-7.63,6.74-8.1,7.44" transform="translate(-6.24 -4.4)"/><path class="cls-3" d="M72,16.8a103.61,103.61,0,0,0,7.42-7.41" transform="translate(-6.24 -4.4)"/><path class="cls-3" d="M69.39,13.43s4.87-4,6-5.45" transform="translate(-6.24 -4.4)"/><path class="cls-3" d="M67.26,10.39a38.5,38.5,0,0,0,3.95-3.58" transform="translate(-6.24 -4.4)"/></svg>